<svg width="43" height="42" viewBox="0 0 43 42" fill="none" xmlns="http://www.w3.org/2000/svg">
<path d="M18.9689 35.1284C18.6695 35.1284 18.4269 35.371 18.4269 35.6704C18.4269 35.9698 18.6695 36.2124 18.9689 36.2124H25.3814C25.6808 36.2124 25.9234 35.9698 25.9234 35.6704C25.9234 35.371 25.6808 35.1284 25.3814 35.1284H18.9689Z" fill="#01D46C"/>
<path d="M22.1751 6.70565C22.4745 6.70565 22.7171 6.46305 22.7171 6.16366V2.54199C22.7171 2.2426 22.4745 2 22.1751 2C21.8757 2 21.6331 2.2426 21.6331 2.54199V6.16366C21.6331 6.46305 21.8757 6.70565 22.1751 6.70565Z" fill="#01D46C"/>
<path d="M15.3136 6.7623C15.4182 6.91753 15.5892 7.00136 15.7635 7.00136C15.8677 7.00136 15.9731 6.9713 16.066 6.90864C16.3143 6.74128 16.3797 6.40437 16.2123 6.15629L14.1872 3.15365C14.02 2.90549 13.6829 2.84002 13.4348 3.00738C13.1866 3.17475 13.1211 3.51165 13.2886 3.75974L15.3136 6.7623Z" fill="#01D46C"/>
<path d="M8.84555 8.99842L12.1079 10.5714C12.1839 10.608 12.264 10.6253 12.3429 10.6253C12.5445 10.6253 12.7381 10.5124 12.8316 10.3186C12.9616 10.049 12.8483 9.72498 12.5788 9.59497L9.31636 8.02197C9.04644 7.89203 8.72269 8.0052 8.59269 8.27475C8.46275 8.54445 8.57592 8.86841 8.84555 8.99842Z" fill="#01D46C"/>
<path d="M28.2843 6.90864C28.3772 6.9713 28.4826 7.00136 28.5869 7.00136C28.7609 7.00136 28.932 6.9176 29.0367 6.7623L31.0618 3.75967C31.2292 3.51151 31.1637 3.17468 30.9155 3.00731C30.6673 2.83987 30.3304 2.90534 30.1632 3.15358L28.1381 6.15621C27.9706 6.40437 28.0361 6.7412 28.2843 6.90864Z" fill="#01D46C"/>
<path d="M32.0073 10.6253C32.0863 10.6253 32.1665 10.6079 32.2424 10.5714L35.5047 8.99835C35.7742 8.86834 35.8875 8.54438 35.7575 8.27468C35.6274 8.00513 35.3034 7.89211 35.0338 8.02189L31.7715 9.5949C31.502 9.72491 31.3887 10.0489 31.5187 10.3186C31.6122 10.5123 31.8058 10.6253 32.0073 10.6253Z" fill="#01D46C"/>
<path d="M34.5453 31.8461H33.9633V28.1582C33.9633 27.8588 33.7207 27.6162 33.4213 27.6162H31.9136L30.2395 11.8158C30.0146 9.6925 28.2348 8.09131 26.0996 8.09131H23.2587C22.9593 8.09131 22.7167 8.3339 22.7167 8.6333C22.7167 8.9327 22.9593 9.17529 23.2587 9.17529H26.0996C27.6788 9.17529 28.9951 10.3596 29.1616 11.93L30.8235 27.6161H26.1273V25.0354C26.1273 24.736 25.8847 24.4934 25.5853 24.4934C25.2859 24.4934 25.0433 24.736 25.0433 25.0354V27.6161H19.3069V24.748C19.3069 23.1664 20.5935 21.8797 22.175 21.8797C23.1637 21.8797 24.0704 22.3799 24.6003 23.2177C24.7605 23.4707 25.095 23.546 25.3482 23.386C25.6011 23.226 25.6765 22.8912 25.5165 22.6382C24.7867 21.4845 23.5376 20.7957 22.1751 20.7957C19.9958 20.7957 18.2229 22.5687 18.2229 24.748V27.6161H13.5268L15.1887 11.93C15.3552 10.3596 16.6715 9.17529 18.2507 9.17529H21.0916C21.391 9.17529 21.6336 8.9327 21.6336 8.6333C21.6336 8.3339 21.391 8.09131 21.0916 8.09131H18.2507C16.1155 8.09131 14.3357 9.6925 14.1107 11.8158L12.4367 27.6162H10.929C10.6296 27.6162 10.387 27.8588 10.387 28.1582V31.8461H9.80494C8.92763 31.8461 8.21387 32.5599 8.21387 33.4372V38.458C8.21387 38.7574 8.45646 39 8.75586 39H29.5289C29.8283 39 30.0709 38.7574 30.0709 38.458C30.0709 38.1586 29.8283 37.916 29.5289 37.916H9.29785V33.4371C9.29785 33.1575 9.52527 32.93 9.80494 32.93H34.5454C34.825 32.93 35.0525 33.1574 35.0525 33.4371V37.916H31.6961C31.3967 37.916 31.1541 38.1586 31.1541 38.458C31.1541 38.7574 31.3967 39 31.6961 39H35.5944C35.8938 39 36.1364 38.7574 36.1364 38.458V33.4371C36.1363 32.5599 35.4225 31.8461 34.5453 31.8461ZM11.471 31.8461V28.7002H32.8793V31.8461H11.471Z" fill="#212121"/>
</svg>
